<svg width="330" height="131" viewBox="18 18 330 131" xmlns="http://www.w3.org/2000/svg"><defs><linearGradient x1="0%" y1="0%" y2="100%" id="a"><stop stop-color="#028EF7" offset="0%"/><stop stop-color="#0155EB" offset="100%"/></linearGradient></defs><g fill="none" fill-rule="evenodd"><path d="M0 0h194.663l46.825 70.85H46.825L0 0zm57.78 54.427V13.205c3.556-.624 8.361-.936 13.353-.936 8.113 0 13.167 1.31 17.348 4.179 4.618 3.18 7.614 8.419 7.614 16.152 0 8.606-3.245 14.156-7.364 17.337-4.618 3.555-11.544 5.176-19.782 5.176-5.366 0-9.048-.374-11.17-.686zm11.232-33.302v25.132c.561.125 1.622.125 2.371.125 7.301.062 12.73-3.929 12.73-13.408 0-8.232-4.867-12.099-11.67-12.099-1.746 0-2.87.125-3.431.25zm53.978 23.76h-10.858l-2.371 9.73H98.09L110.26 12.58h15.04l12.542 42.033h-12.168l-2.684-9.729zm-9.36-8.294h7.8l-1.934-7.546c-.624-2.37-1.436-5.862-2.122-8.294h-.125c-.624 2.432-1.248 5.924-1.81 8.294l-1.81 7.546zm28.206 16.09c2.371 1.247 7.301 2.557 12.356 2.557 12.293 0 17.91-6.174 17.91-13.408 0-5.863-3.37-9.916-10.921-12.723-5.304-1.933-7.55-2.806-7.55-4.926 0-1.871 1.871-3.118 5.303-3.118 4.181 0 7.301 1.184 9.111 1.995l2.371-8.98c-2.745-1.247-6.365-2.183-11.357-2.183-10.608 0-16.911 5.738-16.911 13.159 0 6.236 4.743 10.165 11.856 12.66 4.743 1.621 6.615 2.806 6.615 4.864 0 2.12-1.872 3.43-5.74 3.43-4.244 0-8.363-1.31-10.921-2.62l-2.122 9.293zm36.38-40.1v42.033h11.296v-16.65h13.666v16.65h11.295V29.977L203.178 12.88v15.23h-13.666V12.58h-11.295z" fill="url(#a)" transform="translate(19 18)"/><path d="M76.78 135.715V94.306c3.057-.499 7.488-.935 13.853-.935 6.053 0 10.42 1.122 13.354 3.367 2.87 2.12 4.805 5.8 4.805 10.103 0 4.241-1.435 7.92-4.119 10.353-3.37 2.993-8.3 4.365-13.978 4.365-1.123 0-2.06-.125-2.746-.125v14.281H76.78zm11.17-33.613v10.726c.623.062 1.372.125 2.558.125 4.368 0 7.114-2.245 7.114-5.862 0-3.118-2.06-5.239-6.365-5.239-1.623 0-2.746.125-3.308.25zm25.959 33.613h11.295V91.437h-11.295v44.278zm48.55-30.682h-11.296v18.085c0 .624-.062 1.185-.25 1.622-.436 1.184-1.56 2.619-3.619 2.619-2.683 0-3.93-2.12-3.93-6.05v-16.276h-11.296v18.085c0 8.856 4.056 13.283 10.92 13.283 5.492 0 8.175-3.055 9.299-4.74h.187l.5 4.054h9.734c-.125-2.619-.25-6.111-.25-10.477v-20.205zm7.05 30.682h10.921v-17.524c0-.748.063-1.559.312-2.307.437-.998 1.436-2.495 3.433-2.495 2.558 0 3.619 2.245 3.619 5.675v16.651h10.92v-17.461c0-.686.063-1.622.313-2.245.499-1.497 1.622-2.62 3.432-2.62 2.496 0 3.619 2.183 3.619 5.987v16.34h10.92v-18.024c0-8.543-3.806-13.345-10.42-13.345-2.06 0-3.87.436-5.43 1.247a12.502 12.502 0 0 0-4.243 3.68h-.125c-1.31-3.119-4.368-4.927-8.3-4.927-5.304 0-7.987 2.993-9.11 4.552h-.25l-.437-3.866h-9.423c.125 2.868.25 6.36.25 10.477v20.205zm54.354-9.728v-34.55h11.232v16.714h.125c1.747-2.308 4.805-3.804 8.737-3.804 7.238 0 12.605 5.987 12.543 15.403 0 11.101-6.99 16.651-14.103 16.651-3.245 0-6.678-1.184-8.737-4.614h-.125l-.436 3.928h-9.486c.125-1.995.25-5.924.25-9.728zm11.232-7.733v4.116c0 .561.063 1.122.125 1.559.437 1.995 2.184 3.68 4.43 3.68 3.308 0 5.43-2.495 5.43-7.36 0-4.178-1.685-7.296-5.43-7.296-2.183 0-4.055 1.621-4.43 3.804-.062.499-.125.998-.125 1.497zm38.066 17.461v-30.682h-11.295v30.682h11.295zm-5.616-44.465c-3.495 0-5.741 2.245-5.741 5.364 0 2.93 2.184 5.3 5.679 5.3 3.556 0 5.803-2.37 5.803-5.3-.062-3.119-2.247-5.364-5.741-5.364zm12.543 44.465h11.295v-17.399c0-.81.062-1.684.312-2.245.5-1.185 1.498-2.682 3.682-2.682 2.745 0 3.931 2.058 3.931 5.613v16.713h11.295V117.63c0-8.419-3.931-13.283-11.108-13.283-5.117 0-8.112 2.993-9.235 4.615h-.188l-.499-3.93h-9.735c.125 2.87.25 6.362.25 10.478v20.205zm67.645-21.203v16.713c0 5.364-1.061 10.477-4.805 13.72-3.495 2.994-8.175 3.804-12.918 3.804-4.243 0-8.549-.81-11.42-2.307l2.122-8.481c1.872 1.06 5.367 2.245 8.861 2.245 3.994 0 7.114-2.183 7.114-6.923v-1.372h-.124c-1.873 2.308-4.618 3.43-7.676 3.43-7.488 0-12.917-5.987-12.917-14.905 0-9.666 6.24-16.09 13.915-16.09 3.745 0 6.303 1.435 7.926 3.992h.124l.375-3.305h9.672c-.125 1.933-.25 4.552-.25 9.479zm-11.233 7.296v-4.116c0-.498-.062-.997-.125-1.434-.499-2.245-1.934-3.492-3.993-3.492-2.684 0-4.993 2.619-4.993 7.483 0 3.992 1.872 6.923 4.993 6.923 2.059 0 3.557-1.372 3.93-3.056.188-.624.188-1.622.188-2.308z" fill="#0155EB"/></g></svg>