<svg width="180" height="180" viewBox="0 0 180 180" xmlns="http://www.w3.org/2000/svg" xmlns:xlink="http://www.w3.org/1999/xlink"><defs><rect id="a" width="180" height="180" rx="10.405"/><radialGradient fx="50%" fy="50%" r="49.131%" id="c"><stop stop-color="#61A175" offset="0%"/><stop stop-color="#477856" offset="100%"/></radialGradient></defs><g fill="none" fill-rule="evenodd"><mask id="b" fill="#fff"><use xlink:href="#a"/></mask><use fill="#6BB081" xlink:href="#a"/><path d="M40.4 156V23C50.6 21.4 66 20.2 84 20.2c20.6 0 35.4 2.8 45.6 10.4 8.6 6.8 13.2 16.4 13.2 29.4 0 16.8-12.6 28.6-23 32.6v.6c8.8 4 13.8 12.6 17.2 24.2 4 13.8 8.4 33.4 11 38.6h-36.8c-2-4-5.6-14.4-9.4-31.2-3.6-16-8.6-19.4-19.8-19.4h-5.8V156H40.4zM76.2 47.8v31.6h9.4c13.6 0 21.4-6.6 21.4-16.6 0-10-6.6-15.8-18.6-15.8-6.8 0-10.4.2-12.2.8z" fill-opacity=".877" fill="#FFF" mask="url(#b)"/><g transform="translate(129 129)" mask="url(#b)"><circle stroke="#376A47" stroke-width="2" fill="url(#c)" cx="41.5" cy="41.5" r="41.5"/><path d="M25.38 31h-7.92v4.2h2.7v3.48c-.27.12-.96.18-1.71.18-3.3 0-5.73-2.19-5.73-5.97 0-4.11 2.76-5.85 6.09-5.85 2.28 0 3.66.36 4.8.84l1.08-4.32c-1.05-.51-3.12-.99-5.85-.99-6.54 0-11.79 3.57-11.82 10.59 0 2.91.99 5.52 2.88 7.32 1.83 1.74 4.53 2.73 8.49 2.73 2.64 0 5.46-.63 6.99-1.14V31zm12.6-8.58c6.51 0 9.81 4.83 9.81 10.26 0 6.51-3.9 10.65-10.14 10.65-6.27 0-9.72-4.71-9.72-10.32 0-5.91 3.84-10.59 10.05-10.59zm-.12 4.29c-2.55 0-4.2 2.46-4.2 6.18 0 3.81 1.65 6.15 4.26 6.15s4.14-2.55 4.14-6.21c0-3.48-1.56-6.12-4.2-6.12z" fill="#EDF5EF"/></g></g></svg>