<svg width="180" height="180" viewBox="0 0 180 180" xmlns="http://www.w3.org/2000/svg" xmlns:xlink="http://www.w3.org/1999/xlink"><defs><rect id="a" width="180" height="180" rx="10.405"/><radialGradient cy="47.741%" fx="50%" fy="47.741%" r="46.577%" id="c"><stop stop-color="#C1C1C1" offset="0%"/><stop stop-color="#919191" offset="100%"/></radialGradient></defs><g fill="none" fill-rule="evenodd"><mask id="b" fill="#fff"><use xlink:href="#a"/></mask><use fill="#C7C7C7" xlink:href="#a"/><path d="M105.8 126.6H71l-7.6 31.2H26L65 23h48.2l40.2 134.8h-39l-8.6-31.2zm-30-26.6h25l-6.2-24.2c-2-7.6-4.6-18.8-6.8-26.6h-.4c-2 7.8-4 19-5.8 26.6L75.8 100z" fill="#4A4A4A" mask="url(#b)"/><g transform="translate(129 129)" mask="url(#b)"><circle stroke="#898989" stroke-width="2" fill="url(#c)" cx="41.5" cy="41.5" r="41.5"/><path d="M25.38 31h-7.92v4.2h2.7v3.48c-.27.12-.96.18-1.71.18-3.3 0-5.73-2.19-5.73-5.97 0-4.11 2.76-5.85 6.09-5.85 2.28 0 3.66.36 4.8.84l1.08-4.32c-1.05-.51-3.12-.99-5.85-.99-6.54 0-11.79 3.57-11.82 10.59 0 2.91.99 5.52 2.88 7.32 1.83 1.74 4.53 2.73 8.49 2.73 2.64 0 5.46-.63 6.99-1.14V31zm12.6-8.58c6.51 0 9.81 4.83 9.81 10.26 0 6.51-3.9 10.65-10.14 10.65-6.27 0-9.72-4.71-9.72-10.32 0-5.91 3.84-10.59 10.05-10.59zm-.12 4.29c-2.55 0-4.2 2.46-4.2 6.18 0 3.81 1.65 6.15 4.26 6.15s4.14-2.55 4.14-6.21c0-3.48-1.56-6.12-4.2-6.12z" fill="#4A4A4A"/></g></g></svg>