<svg width="125" height="50" viewBox="11 2 125 50" xmlns="http://www.w3.org/2000/svg"><defs><linearGradient x1="0%" y1="0%" y2="100%" id="a"><stop stop-color="#028EF7" offset="0%"/><stop stop-color="#0155EB" offset="100%"/></linearGradient></defs><g fill="none" fill-rule="evenodd"><path d="M0 0h73.96l17.79 27.042H17.79L0 0zm21.953 20.774V5.04c1.351-.238 3.177-.357 5.073-.357 3.083 0 5.003.5 6.592 1.595 1.754 1.214 2.892 3.213 2.892 6.165 0 3.284-1.233 5.403-2.798 6.617-1.754 1.357-4.386 1.975-7.515 1.975-2.04 0-3.438-.142-4.244-.261zM26.22 8.063v9.592c.214.048.617.048.901.048 2.774.024 4.837-1.5 4.837-5.118 0-3.141-1.85-4.617-4.434-4.617-.664 0-1.09.047-1.304.095zm20.509 9.069h-4.126l-.9 3.713h-4.434l4.623-16.043h5.714l4.766 16.043h-4.624l-1.02-3.713zm-3.557-3.166h2.964l-.735-2.88c-.237-.905-.545-2.238-.806-3.166h-.047c-.238.928-.475 2.261-.688 3.166l-.688 2.88zm10.717 6.141c.901.476 2.774.976 4.694.976 4.671 0 6.805-2.356 6.805-5.118 0-2.237-1.28-3.784-4.15-4.855-2.014-.738-2.868-1.071-2.868-1.88 0-.715.711-1.19 2.015-1.19 1.589 0 2.774.451 3.462.76l.9-3.427c-1.042-.476-2.417-.833-4.314-.833-4.03 0-6.425 2.19-6.425 5.023 0 2.38 1.801 3.88 4.504 4.832 1.802.618 2.514 1.07 2.514 1.856 0 .81-.712 1.31-2.182 1.31-1.612 0-3.177-.5-4.149-1l-.806 3.546zM67.712 4.802v16.043h4.29V14.49h5.193v6.355h4.292v-9.403l-4.292-6.526v5.813h-5.192V4.802h-4.291z" fill="url(#a)" transform="translate(11 2)"/><path d="M32.953 46.93V31.125c1.161-.19 2.845-.358 5.263-.358 2.3 0 3.96.429 5.074 1.286 1.09.81 1.825 2.213 1.825 3.856 0 1.618-.545 3.023-1.564 3.951-1.28 1.143-3.154 1.666-5.311 1.666-.427 0-.783-.047-1.043-.047v5.45h-4.244zm4.244-12.83v4.094c.237.024.521.048.972.048 1.66 0 2.702-.857 2.702-2.238 0-1.19-.782-2-2.418-2-.616 0-1.043.048-1.256.096zm9.863 12.83h4.291v-16.9H47.06v16.9zm18.445-11.711h-4.29v6.902c0 .238-.025.453-.096.62-.166.452-.592.999-1.375.999-1.02 0-1.494-.81-1.494-2.309V35.22H53.96v6.902c0 3.38 1.541 5.07 4.15 5.07 2.086 0 3.105-1.166 3.532-1.809h.071l.19 1.548H65.6c-.047-1-.095-2.333-.095-4V35.22zm2.68 11.71h4.149v-6.688c0-.286.023-.595.118-.88.166-.382.546-.953 1.304-.953.972 0 1.375.857 1.375 2.166v6.356h4.15v-6.665c0-.262.023-.62.118-.857.19-.571.617-1 1.304-1 .949 0 1.375.833 1.375 2.285v6.237h4.15v-6.88c0-3.26-1.447-5.093-3.96-5.093-.782 0-1.47.166-2.063.476a4.756 4.756 0 0 0-1.612 1.404h-.047c-.498-1.19-1.66-1.88-3.154-1.88-2.015 0-3.035 1.142-3.461 1.737h-.095l-.166-1.475h-3.58a90.16 90.16 0 0 1 .095 3.998v7.713zm20.65-3.713V30.03h4.268v6.379h.048c.663-.881 1.825-1.452 3.319-1.452 2.75 0 4.79 2.285 4.765 5.88 0 4.236-2.655 6.354-5.358 6.354-1.233 0-2.537-.452-3.32-1.761h-.047l-.166 1.5h-3.603a69.37 69.37 0 0 0 .094-3.714zm4.268-2.951v1.57c0 .215.024.43.048.596.165.762.83 1.404 1.683 1.404 1.256 0 2.063-.952 2.063-2.809 0-1.594-.64-2.784-2.063-2.784-.83 0-1.541.618-1.683 1.452-.024.19-.048.38-.048.57zm14.463 6.665V35.219h-4.292v11.71h4.292zm-2.134-16.972c-1.328 0-2.181.857-2.181 2.047 0 1.119.83 2.023 2.157 2.023 1.352 0 2.205-.904 2.205-2.023-.023-1.19-.853-2.047-2.181-2.047zm4.766 16.972h4.29v-6.641c0-.31.025-.643.12-.857.19-.453.568-1.024 1.398-1.024 1.044 0 1.494.786 1.494 2.142v6.38h4.291v-6.903c0-3.214-1.493-5.07-4.22-5.07-1.944 0-3.082 1.142-3.509 1.761h-.071l-.19-1.5h-3.698a90.16 90.16 0 0 1 .095 4v7.712zm25.7-8.093v6.379c0 2.047-.403 3.999-1.825 5.236-1.328 1.143-3.106 1.452-4.908 1.452-1.612 0-3.248-.31-4.339-.88l.806-3.238c.712.405 2.04.857 3.367.857 1.517 0 2.703-.833 2.703-2.642v-.523h-.048c-.71.88-1.754 1.309-2.916 1.309-2.845 0-4.908-2.285-4.908-5.69 0-3.689 2.371-6.14 5.288-6.14 1.422 0 2.394.547 3.01 1.523h.048l.142-1.261h3.675c-.047.737-.095 1.737-.095 3.618zm-4.267 2.785V40.05c0-.19-.024-.381-.048-.548-.19-.857-.735-1.333-1.517-1.333-1.02 0-1.897 1-1.897 2.856 0 1.524.711 2.643 1.897 2.643.782 0 1.351-.524 1.494-1.167.07-.238.07-.619.07-.88z" fill="#0155EB"/></g></svg>